<svg width="150" height="300" xmlns="http://www.w3.org/2000/svg" xmlns:svg="http://www.w3.org/2000/svg">
 <!-- Created with SVG-edit - http://svg-edit.googlecode.com/ -->

 <g>
  <title>Layer 1</title>
  <path stroke="#000000" id="svg_1" d="m7.005454,299.586484c-7.134677,-1.281939 -9.182465,-13.603376 -4.453724,-20.037887c5.177193,-9.138055 15.085285,-14.90562 23.176897,-9.278048c0.329744,-34.822087 0.143182,-69.651404 0.192413,-104.476592c40.852523,-10.959342 81.761073,-21.556524 122.631143,-32.40038c-0.117772,38.499524 0.2876,77.011648 -0.28451,115.50107c-0.981069,9.929174 -8.539556,16.523267 -15.344046,18.585327c-5.962506,2.450738 -14.358641,-2.859345 -12.946586,-12.433221c1.746075,-10.354979 9.713272,-17.816217 17.372343,-18.723937c3.792831,-1.951999 10.056785,6.450326 8.313247,-2.875882c0.108782,-18.68542 0.054154,-37.371535 0.067495,-56.057309c-19.072492,4.998461 -38.140119,10.032359 -57.210309,15.048365c-0.114408,24.376296 0.277085,48.770111 -0.294003,73.132998c-1.584714,10.622598 -10.115021,17.644254 -17.815394,18.19494c-7.424853,1.935817 -13.497925,-9.636126 -8.937687,-18.068697c4.804911,-10.469891 15.776811,-17.521465 24.385123,-11.173972c0.165477,-20.432083 0.071317,-40.866899 0.09595,-61.299997c-19.13432,5.229266 -38.332811,10.054027 -57.467231,15.283293c-0.128252,24.68105 0.313737,49.393035 -0.349269,74.049311c-2.594088,11.304344 -12.580758,18.629705 -21.13185,17.030624l0,0l0,-0.000007zm50.52392,-106.442341c9.388108,-2.506453 18.791983,-4.915573 28.156331,-7.576116c1.470814,-9.046214 -8.927959,0.058134 -12.634349,-0.874006c-14.853509,3.925646 -29.714931,7.797975 -44.564807,11.748048c-1.12921,8.718764 7.614834,0.827571 11.197476,1.416093c5.94796,-1.574667 11.896497,-3.145538 17.845349,-4.714012l0,-0.000007zm-1.078798,-11.719152c9.834253,-2.595889 19.673231,-5.158057 29.503228,-7.781813c0.816853,-8.735133 -8.526211,-0.186421 -12.171793,-1.033602c-15.059352,3.951783 -30.111746,7.950696 -45.167166,11.929312c-1.382628,8.440836 7.254612,0.851992 10.672724,1.406799c5.720584,-1.509644 11.441691,-3.015861 17.163002,-4.520695l0.000005,0zm61.379398,-4.343902c9.299688,-2.448326 18.599401,-4.896651 27.899374,-7.344636c0.873563,-8.708963 -8.226287,-0.599526 -11.940127,-1.254432c-15.049524,3.960389 -30.094424,7.951385 -45.141377,11.929312c-1.773025,7.37972 4.282849,2.636818 7.412011,2.397421c7.256789,-1.907956 14.513579,-3.817643 21.770119,-5.727664zm-60.224923,-7.799352c9.40684,-2.488226 18.813795,-4.976246 28.220481,-7.464439c1.584714,-8.884828 -7.146478,-1.203007 -10.643521,-1.698177c-15.529885,4.189123 -31.05695,8.396606 -46.593434,12.541017c-0.899825,9.097814 9.365887,-0.246967 13.18948,0.791112c5.276576,-1.383421 10.552101,-2.774406 15.826993,-4.16952l0,0.000007zm59.712075,-4.077365c9.471076,-2.493251 18.942162,-4.986495 28.412994,-7.479745c1.123703,-8.36352 -7.191637,-0.877521 -10.57658,-1.435014c-15.543116,4.107705 -31.09445,8.159721 -46.634237,12.291471c-0.239874,8.617295 9.817674,-0.341902 14.065645,0.492551c4.911152,-1.286422 9.822039,-2.576627 14.732174,-3.869269l0.000005,0.000007zm-0.192413,-11.806316c9.440294,-2.544637 18.928049,-4.861361 28.337805,-7.557375c1.410012,-8.84462 -9.070588,0.285458 -12.740295,-0.731434c-14.637505,3.835462 -29.331955,7.38302 -43.937382,11.376976c-1.562911,9.35795 9.100877,0.031061 12.920658,0.970458c5.139484,-1.354799 10.279223,-2.707359 15.41922,-4.058624l-0.000005,0z" fill="#7f7f7f"/>
  <path transform="rotate(180 74.29148864746094,83.20574951171875) " id="svg_2" stroke="#000000" d="m7.005456,166.19291c-7.13468,-1.28194 -9.18247,-13.60338 -4.45372,-20.03789c5.17719,-9.13805 15.08528,-14.90562 23.17689,-9.27804c0.32975,-34.82209 0.14318,-69.65141 0.19241,-104.4766c40.85253,-10.95934 81.76108,-21.55652 122.63115,-32.40038c-0.11777,38.49953 0.2876,77.01165 -0.28451,115.50107c-0.98107,9.92918 -8.53956,16.52327 -15.34405,18.58533c-5.9625,2.45074 -14.35864,-2.85934 -12.94658,-12.43322c1.74607,-10.35498 9.71327,-17.81622 17.37234,-18.72394c3.79283,-1.952 10.05678,6.45033 8.31325,-2.87588c0.10878,-18.68542 0.05415,-37.37153 0.06749,-56.05731c-19.07249,4.99846 -38.14012,10.03236 -57.21031,15.04837c-0.11441,24.37629 0.27709,48.77011 -0.294,73.133c-1.58472,10.62259 -10.11502,17.64425 -17.8154,18.19493c-7.42485,1.93582 -13.49792,-9.63612 -8.93768,-18.06869c4.80491,-10.46989 15.77681,-17.52147 24.38512,-11.17397c0.16548,-20.43209 0.07132,-40.8669 0.09595,-61.3c-19.13432,5.22927 -38.33281,10.05403 -57.46723,15.28329c-0.12825,24.68105 0.31374,49.39304 -0.34927,74.04931c-2.59409,11.30435 -12.58076,18.62971 -21.13185,17.03063l0,0l0,-0.00001zm50.52392,-106.44234c9.38811,-2.50645 18.79198,-4.91557 28.15633,-7.57612c1.47081,-9.04621 -8.92796,0.05814 -12.63435,-0.874c-14.85351,3.92564 -29.71493,7.79797 -44.56481,11.74804c-1.12921,8.71877 7.61484,0.82758 11.19748,1.4161c5.94796,-1.57467 11.8965,-3.14554 17.84535,-4.71401l0,-0.00001zm-1.0788,-11.71915c9.83425,-2.59589 19.67323,-5.15806 29.50323,-7.78182c0.81685,-8.73513 -8.52621,-0.18642 -12.17179,-1.0336c-15.05936,3.95179 -30.11175,7.9507 -45.16717,11.92931c-1.38263,8.44084 7.25461,0.852 10.67272,1.4068c5.72059,-1.50964 11.44169,-3.01586 17.16301,-4.52069l0,0zm61.3794,-4.3439c9.29969,-2.44833 18.5994,-4.89666 27.89937,-7.34464c0.87357,-8.70896 -8.22628,-0.59953 -11.94012,-1.25443c-15.04953,3.96039 -30.09443,7.95138 -45.14138,11.92931c-1.77303,7.37972 4.28285,2.63682 7.41201,2.39742c7.25679,-1.90796 14.51358,-3.81764 21.77012,-5.72766zm-60.22492,-7.79936c9.40684,-2.48822 18.81379,-4.97624 28.22048,-7.46443c1.58471,-8.88483 -7.14648,-1.20301 -10.64352,-1.69818c-15.52989,4.18912 -31.05695,8.3966 -46.59344,12.54102c-0.89982,9.09781 9.36589,-0.24697 13.18948,0.79111c5.27658,-1.38342 10.5521,-2.77441 15.827,-4.16952l0,0zm59.71207,-4.07736c9.47108,-2.49325 18.94216,-4.9865 28.413,-7.47975c1.1237,-8.36352 -7.19164,-0.87752 -10.57658,-1.43501c-15.54312,4.1077 -31.09445,8.15972 -46.63424,12.29147c-0.23988,8.6173 9.81767,-0.3419 14.06564,0.49255c4.91115,-1.28642 9.82204,-2.57662 14.73218,-3.86927l0,0.00001zm-0.19241,-11.80632c9.44029,-2.54463 18.92805,-4.86136 28.3378,-7.55737c1.41002,-8.84462 -9.07058,0.28546 -12.74029,-0.73144c-14.63751,3.83547 -29.33196,7.38302 -43.93738,11.37698c-1.56291,9.35795 9.10087,0.03106 12.92065,0.97046c5.13949,-1.3548 10.27923,-2.70736 15.41922,-4.05863l0,0z" fill="#7f7f7f"/>
 </g>
</svg>
